<svg width="80px" height="80px" viewBox="0 0 24 24" fill="none" xmlns="http://www.w3.org/2000/svg">
    <path d="M16 19.5C16 19.5 17 21 20 21C23 21 24 19.5 24 19.5" stroke="#F472B6" stroke-width="1.5" stroke-linecap="round" stroke-linejoin="round"/>
    <path d="M13.5 19.5C13.5 19.5 14.5 21 17.5 21C20.5 21 21.5 19.5 21.5 19.5" stroke="#F472B6" stroke-width="1.5" stroke-linecap="round" stroke-linejoin="round"/>
    <path d="M11 19.5C11 19.5 12 21 15 21C18 21 19 19.5 19 19.5" stroke="#F472B6" stroke-width="1.5" stroke-linecap="round" stroke-linejoin="round"/>
    <path d="M8.5 19.5C8.5 19.5 9.5 21 12.5 21C15.5 21 16.5 19.5 16.5 19.5" stroke="#F472B6" stroke-width="1.5" stroke-linecap="round" stroke-linejoin="round"/>
    <path d="M12.5 12.5C12.5 12.5 13 14 15 14C17 14 17.5 12.5 17.5 12.5" stroke="#34D399" stroke-width="1.5" stroke-linecap="round" stroke-linejoin="round"/>
    <path d="M10 12.5C10 12.5 10.5 14 12.5 14C14.5 14 15 12.5 15 12.5" stroke="#34D399" stroke-width="1.5" stroke-linecap="round" stroke-linejoin="round"/>
    <path d="M7.5 12.5C7.5 12.5 8 14 10 14C12 14 12.5 12.5 12.5 12.5" stroke="#34D399" stroke-width="1.5" stroke-linecap="round" stroke-linejoin="round"/>
    <path d="M5 12.5C5 12.5 5.5 14 7.5 14C9.5 14 10 12.5 10 12.5" stroke="#34D399" stroke-width="1.5" stroke-linecap="round" stroke-linejoin="round"/>
    <path d="M2.5 12.5C2.5 12.5 3 14 5 14C7 14 7.5 12.5 7.5 12.5" stroke="#34D399" stroke-width="1.5" stroke-linecap="round" stroke-linejoin="round"/>
    <path d="M9 3C9 3 9.5 4.5 11.5 4.5C13.5 4.5 14 3 14 3" stroke="#60A5FA" stroke-width="1.5" stroke-linecap="round" stroke-linejoin="round"/>
    <path d="M6.5 3C6.5 3 7 4.5 9 4.5C11 4.5 11.5 3 11.5 3" stroke="#60A5FA" stroke-width="1.5" stroke-linecap="round" stroke-linejoin="round"/>
    <path d="M4 3C4 3 4.5 4.5 6.5 4.5C8.5 4.5 9 3 9 3" stroke="#60A5FA" stroke-width="1.5" stroke-linecap="round" stroke-linejoin="round"/>
    <path d="M1.5 3C1.5 3 2 4.5 4 4.5C6 4.5 6.5 3 6.5 3" stroke="#60A5FA" stroke-width="1.5" stroke-linecap="round" stroke-linejoin="round"/>
    <path d="M0 3C0 3 0.5 4.5 2.5 4.5C4.5 4.5 5 3 5 3" stroke="#60A5FA" stroke-width="1.5" stroke-linecap="round" stroke-linejoin="round"/>
    <path d="M16 11L14.5 9.5M14.5 9.5C14.5 9.5 15.5 8.5 17.5 8.5C19.5 8.5 20.5 9.5 20.5 9.5M14.5 9.5L13 11" stroke="#FBBF24" stroke-width="1.5" stroke-linecap="round" stroke-linejoin="round"/>
    <path d="M14.5 6.5L13 5M13 5C13 5 14 4 16 4C18 4 19 5 19 5M13 5L11.5 6.5" stroke="#FBBF24" stroke-width="1.5" stroke-linecap="round" stroke-linejoin="round"/>
</svg>